<svg width="27" height="27" viewBox="0 0 27 27" fill="none" xmlns="http://www.w3.org/2000/svg">
<path d="M1.86523 7.07752C1.86523 6.32057 2.60829 6.0178 2.60829 6.0178L13.55 0.878906L24.5958 6.0178C24.5958 6.0178 25.3569 6.18724 25.3569 7.08307V7.97335H1.86523V7.07752Z" fill="#FFE8B6"/>
<path d="M24.6236 9.82743C24.6236 9.01632 23.9222 8.35938 23.0583 8.35938H4.06805C3.20277 8.35938 2.59999 9.01632 2.59999 9.82743C2.59999 10.3788 2.88333 10.8538 3.33472 11.1052V12.0302H6.27083V11.2955H9.20694V12.0302H12.1431V11.2955H15.0792V12.0302H18.0153V11.2955H20.9514V12.0302H23.8889V11.0677C24.3292 10.8066 24.6236 10.3497 24.6236 9.82743ZM26.825 25.333C26.825 25.6251 26.709 25.9052 26.5024 26.1118C26.2959 26.3183 26.0157 26.4344 25.7236 26.4344H1.49861C1.2065 26.4344 0.926357 26.3183 0.719806 26.1118C0.513256 25.9052 0.397217 25.6251 0.397217 25.333C0.397217 25.0409 0.513256 24.7607 0.719806 24.5542C0.926357 24.3476 1.2065 24.2316 1.49861 24.2316H25.725C26.3319 24.2316 26.825 24.7247 26.825 25.333V25.333Z" fill="white"/>
<path d="M25.3569 8.94468C25.3569 9.13954 25.2795 9.32642 25.1417 9.46421C25.0039 9.602 24.817 9.67941 24.6222 9.67941H2.59857C2.41152 9.6679 2.2359 9.58548 2.10751 9.44896C1.97913 9.31244 1.90765 9.13209 1.90765 8.94468C1.90765 8.75728 1.97913 8.57693 2.10751 8.44041C2.2359 8.30388 2.41152 8.22147 2.59857 8.20996L24.6222 8.21413C24.7184 8.21376 24.8138 8.23238 24.9028 8.26891C24.9919 8.30545 25.0728 8.35918 25.141 8.42703C25.2093 8.49489 25.2635 8.57554 25.3005 8.66436C25.3376 8.75319 25.3567 8.84845 25.3569 8.94468V8.94468ZM5.53607 9.79746H21.6875V11.4447H5.53607V9.79746Z" fill="white"/>
<path d="M6.26941 20.9287C6.26941 21.7398 5.83052 22.3967 5.29024 22.3967H4.31108C3.7708 22.3967 3.33191 21.7398 3.33191 20.9287V9.79813C3.33191 8.98702 3.7708 8.33008 4.31108 8.33008H5.29024C5.83052 8.33008 6.26941 8.98702 6.26941 9.79813V20.9287ZM23.8889 20.9287C23.8889 21.7398 23.4514 22.3967 22.9097 22.3967H21.9305C21.3902 22.3967 20.9514 21.7398 20.9514 20.9287V9.79813C20.9514 8.98702 21.3889 8.33008 21.9305 8.33008H22.9097C23.45 8.33008 23.8889 8.98702 23.8889 9.79813V20.9287ZM12.143 20.9287C12.143 21.7398 11.7041 22.3967 11.1639 22.3967H10.1847C9.64441 22.3967 9.20552 21.7398 9.20552 20.9287V9.79813C9.20552 8.98702 9.64441 8.33008 10.1847 8.33008H11.1639C11.7041 8.33008 12.143 8.98702 12.143 9.79813V20.9287ZM18.0152 20.9287C18.0152 21.7398 17.5764 22.3967 17.0361 22.3967H16.0583C15.518 22.3967 15.0791 21.7398 15.0791 20.9287V9.79813C15.0791 8.98702 15.518 8.33008 16.0583 8.33008H17.0361C17.5764 8.33008 18.0152 8.98702 18.0152 9.79813V20.9287Z" fill="white"/>
<path d="M24.6236 21.6624C24.6236 22.4735 23.9666 23.1304 23.1555 23.1304H4.06803C3.67868 23.1304 3.30527 22.9758 3.02996 22.7005C2.75465 22.4251 2.59998 22.0517 2.59998 21.6624C2.59998 21.273 2.75465 20.8996 3.02996 20.6243C3.30527 20.349 3.67868 20.1943 4.06803 20.1943H23.1555C23.9653 20.1943 24.6236 20.8513 24.6236 21.6624V21.6624Z" fill="white"/>
<path d="M26.0916 23.1311C26.0916 23.9422 25.4347 24.5992 24.6235 24.5992H2.59855C2.2092 24.5992 1.83579 24.4445 1.56048 24.1692C1.28516 23.8939 1.13049 23.5205 1.13049 23.1311C1.13049 22.7418 1.28516 22.3684 1.56048 22.0931C1.83579 21.8178 2.2092 21.6631 2.59855 21.6631H24.6222C25.4333 21.6631 26.0916 22.32 26.0916 23.1311V23.1311Z" fill="white"/>
<path d="M26.825 24.2323C26.825 24.5244 26.709 24.8045 26.5024 25.0111C26.2959 25.2176 26.0157 25.3336 25.7236 25.3336H1.49861C1.35397 25.3336 1.21075 25.3052 1.07712 25.2498C0.943495 25.1945 0.82208 25.1133 0.719806 25.0111C0.617533 24.9088 0.536405 24.7874 0.481055 24.6537C0.425705 24.5201 0.397217 24.3769 0.397217 24.2323C0.397217 24.0876 0.425705 23.9444 0.481055 23.8108C0.536405 23.6771 0.617533 23.5557 0.719806 23.4535C0.82208 23.3512 0.943495 23.27 1.07712 23.2147C1.21075 23.1593 1.35397 23.1309 1.49861 23.1309H25.725C26.3319 23.1309 26.825 23.6239 26.825 24.2323V24.2323Z" fill="white"/>
<path d="M24.6236 9.06376C24.6236 8.25265 23.9222 7.5957 23.0583 7.5957H4.06803C3.20275 7.5957 2.59998 8.25265 2.59998 9.06376C2.59998 9.61515 2.88331 10.0901 3.3347 10.3415V11.2665H6.27081V10.5318H9.20692V11.2665H12.143V10.5318H15.0791V11.2665H18.0153V10.5318H20.9514V11.2665H23.8889V10.304C24.3291 10.0429 24.6236 9.58598 24.6236 9.06376Z" fill="white"/>
<path d="M1.86523 7.92127C1.86523 7.16432 2.60829 6.86155 2.60829 6.86155L13.55 1.72266L24.5958 6.86155C24.5958 6.86155 25.3569 7.03099 25.3569 7.92682V8.33099H1.86523V7.92127Z" fill="white"/>
<path d="M25.3569 8.32945C25.3569 8.52431 25.2795 8.71119 25.1417 8.84898C25.0039 8.98676 24.817 9.06417 24.6222 9.06417H2.59857C2.41152 9.05266 2.2359 8.97025 2.10751 8.83372C1.97913 8.6972 1.90765 8.51685 1.90765 8.32945C1.90765 8.14204 1.97913 7.9617 2.10751 7.82517C2.2359 7.68865 2.41152 7.60623 2.59857 7.59473L24.6222 7.59889C24.7184 7.59853 24.8138 7.61715 24.9028 7.65368C24.9919 7.69021 25.0728 7.74394 25.141 7.8118C25.2093 7.87966 25.2635 7.9603 25.3005 8.04913C25.3376 8.13795 25.3567 8.23321 25.3569 8.32945V8.32945Z" fill="white"/>
</svg>
